<svg width="49" height="49" viewBox="0 0 49 49" fill="none" xmlns="http://www.w3.org/2000/svg">
<path d="M24.4978 15.0615C21.994 15.0615 19.5927 16.0562 17.8222 17.8266C16.0518 19.5971 15.0571 21.9984 15.0571 24.5022C15.0571 27.006 16.0518 29.4073 17.8222 31.1777C19.5927 32.9482 21.994 33.9429 24.4978 33.9429C27.0016 33.9429 29.4029 32.9482 31.1734 31.1777C32.9438 29.4073 33.9385 27.006 33.9385 24.5022C33.9385 21.9984 32.9438 19.5971 31.1734 17.8266C29.4029 16.0562 27.0016 15.0615 24.4978 15.0615ZM24.4978 30.6333C22.8712 30.6333 21.3112 29.9871 20.161 28.837C19.0108 27.6868 18.3646 26.1268 18.3646 24.5001C18.3646 22.8735 19.0108 21.3135 20.161 20.1633C21.3112 19.0132 22.8712 18.367 24.4978 18.367C26.1244 18.367 27.6844 19.0132 28.8346 20.1633C29.9848 21.3135 30.631 22.8735 30.631 24.5001C30.631 26.1268 29.9848 27.6868 28.8346 28.837C27.6844 29.9871 26.1244 30.6333 24.4978 30.6333Z" fill="black"/>
<path d="M34.3122 16.915C35.5278 16.915 36.5132 15.9296 36.5132 14.7141C36.5132 13.4986 35.5278 12.5132 34.3122 12.5132C33.0967 12.5132 32.1113 13.4986 32.1113 14.7141C32.1113 15.9296 33.0967 16.915 34.3122 16.915Z" fill="black"/>
<path d="M41.9214 12.4767C41.4487 11.2561 40.7264 10.1477 39.8008 9.22237C38.8751 8.29704 37.7664 7.57518 36.5457 7.103C35.1172 6.56677 33.6081 6.27683 32.0826 6.2455C30.1164 6.15975 29.4937 6.13525 24.508 6.13525C19.5222 6.13525 18.8832 6.13525 16.9334 6.2455C15.4091 6.27522 13.901 6.56523 12.4744 7.103C11.2534 7.57463 10.1444 8.2963 9.21863 9.2217C8.29288 10.1471 7.57079 11.2558 7.0987 12.4767C6.56236 13.905 6.27308 15.4143 6.24324 16.9398C6.15545 18.9038 6.12891 19.5265 6.12891 24.5143C6.12891 29.5001 6.12891 30.135 6.24324 32.0889C6.27386 33.6161 6.56174 35.1228 7.0987 36.554C7.57211 37.7745 8.2949 38.8827 9.22088 39.808C10.1469 40.7333 11.2557 41.4552 12.4764 41.9277C13.9004 42.4855 15.409 42.7962 16.9375 42.8465C18.9036 42.9322 19.5263 42.9587 24.5121 42.9587C29.4978 42.9587 30.1369 42.9587 32.0867 42.8465C33.612 42.8154 35.121 42.5262 36.5497 41.991C37.7702 41.5177 38.8785 40.7952 39.8041 39.8697C40.7297 38.9441 41.4522 37.8357 41.9254 36.6153C42.4624 35.1861 42.7503 33.6794 42.7809 32.1522C42.8687 30.1881 42.8952 29.5654 42.8952 24.5776C42.8952 19.5898 42.8952 18.9569 42.7809 17.003C42.7571 15.456 42.4664 13.9247 41.9214 12.4767ZM39.4346 31.9378C39.4214 33.1145 39.2067 34.2801 38.7997 35.3842C38.493 36.1781 38.0237 36.8991 37.4217 37.5007C36.8197 38.1024 36.0984 38.5713 35.3043 38.8775C34.2125 39.2826 33.0592 39.4974 31.8947 39.5124C29.9552 39.6022 29.408 39.6247 24.4345 39.6247C19.4569 39.6247 18.9485 39.6247 16.9722 39.5124C15.8083 39.4982 14.6556 39.2834 13.5647 38.8775C12.7678 38.5732 12.0436 38.1051 11.4391 37.5033C10.8345 36.9016 10.363 36.1796 10.055 35.3842C9.65373 34.292 9.43908 33.14 9.42007 31.9766C9.33228 30.037 9.31186 29.4899 9.31186 24.5164C9.31186 19.5408 9.31186 19.0325 9.42007 17.0541C9.43327 15.8781 9.64804 14.7132 10.055 13.6098C10.6777 11.9989 11.9538 10.731 13.5647 10.1145C14.6561 9.7105 15.8085 9.49576 16.9722 9.4795C18.9138 9.39171 19.4589 9.36721 24.4345 9.36721C29.41 9.36721 29.9204 9.36721 31.8947 9.4795C33.0593 9.49351 34.2128 9.70832 35.3043 10.1145C36.0984 10.4213 36.8195 10.8907 37.4215 11.4926C38.0234 12.0946 38.4928 12.8157 38.7997 13.6098C39.201 14.702 39.4156 15.8539 39.4346 17.0173C39.5224 18.959 39.5449 19.5041 39.5449 24.4796C39.5449 29.4531 39.5449 29.988 39.4571 31.9399H39.4346V31.9378Z" fill="black"/>
</svg>
