<svg width="34" height="34" viewBox="0 0 34 34" fill="none" xmlns="http://www.w3.org/2000/svg">
<path d="M8.5 2.83301L4.25 8.49967V28.333C4.25 29.0845 4.54851 29.8051 5.07986 30.3365C5.61122 30.8678 6.33189 31.1663 7.08333 31.1663H26.9167C27.6681 31.1663 28.3888 30.8678 28.9201 30.3365C29.4515 29.8051 29.75 29.0845 29.75 28.333V8.49967L25.5 2.83301H8.5Z" stroke="#DDDDDD" stroke-width="2" stroke-linecap="round" stroke-linejoin="round"/>
<path d="M4.25 8.5H29.75" stroke="#DDDDDD" stroke-width="2" stroke-linecap="round" stroke-linejoin="round"/>
<path d="M22.6666 14.167C22.6666 15.6699 22.0696 17.1112 21.0069 18.1739C19.9442 19.2366 18.5028 19.8337 16.9999 19.8337C15.497 19.8337 14.0557 19.2366 12.993 18.1739C11.9303 17.1112 11.3333 15.6699 11.3333 14.167" stroke="#DDDDDD" stroke-width="2" stroke-linecap="round" stroke-linejoin="round"/>
</svg>
