<svg width="34" height="34" viewBox="0 0 34 34" fill="none" xmlns="http://www.w3.org/2000/svg">
<path d="M8.5 2.83337L4.25 8.50004V28.3334C4.25 29.0848 4.54851 29.8055 5.07986 30.3368C5.61122 30.8682 6.33189 31.1667 7.08333 31.1667H26.9167C27.6681 31.1667 28.3888 30.8682 28.9201 30.3368C29.4515 29.8055 29.75 29.0848 29.75 28.3334V8.50004L25.5 2.83337H8.5Z" stroke="#222222" stroke-width="2" stroke-linecap="round" stroke-linejoin="round"/>
<path d="M4.25 8.5H29.75" stroke="#222222" stroke-width="2" stroke-linecap="round" stroke-linejoin="round"/>
<path d="M22.6666 14.1666C22.6666 15.6695 22.0696 17.1109 21.0069 18.1736C19.9442 19.2363 18.5028 19.8333 16.9999 19.8333C15.497 19.8333 14.0557 19.2363 12.993 18.1736C11.9303 17.1109 11.3333 15.6695 11.3333 14.1666" stroke="#222222" stroke-width="2" stroke-linecap="round" stroke-linejoin="round"/>
</svg>
